<?xml version="1.0" encoding="UTF-8"?>
<svg id="Layer_1" data-name="Layer 1" xmlns="http://www.w3.org/2000/svg" viewBox="0 0 531.39 530.47">
  <defs>
    <style>
      .cls-1, .cls-2 {
        stroke-width: 0px;
      }

      .cls-2, .cls-3 {
        fill: #b3b3b3;
      }

      .cls-4 {
        fill: none;
        stroke: #000;
        stroke-width: 27px;
      }

      .cls-4, .cls-5, .cls-6, .cls-3 {
        stroke-miterlimit: 10;
      }

      .cls-5 {
        fill: #ccc;
        stroke: #ccc;
      }

      .cls-5, .cls-6, .cls-3 {
        stroke-width: 8px;
      }

      .cls-6 {
        fill: #fff;
        stroke: #fff;
      }

      .cls-3 {
        stroke: #b3b3b3;
      }
    </style>
  </defs>
  <circle class="cls-2" cx="266.76" cy="265.83" r="264.39"/>
  <g>
    <circle class="cls-1" cx="259.5" cy="259.5" r="246"/>
    <circle class="cls-4" cx="259.5" cy="259.5" r="246"/>
  </g>
  <path class="cls-5" d="m75.18,212.94c-9.13-6.79-.64-35.46,11.14-53.66,9.12-14.1,29.57-36.37,43.63-30.53,9.26,3.84,14.27,19.25,11.86,31.25-1.4,6.94-5.05,11.63-7,14-13.47,16.41-47.99,47.6-59.63,38.95Z"/>
  <path class="cls-6" d="m72.37,208.95c-9.13-6.79-.64-35.46,11.14-53.66,9.12-14.1,29.57-36.37,43.63-30.53,9.26,3.84,14.27,19.25,11.86,31.25-1.4,6.94-5.05,11.63-7,14-13.47,16.41-47.99,47.6-59.63,38.95Z"/>
  <path class="cls-5" d="m230,419.57c-.03,3.6,7.82,6.36,9.78,7.06,14.47,5.09,129.56,29.5,191.38-51.91,35.81-47.16,33.28-127.23-10.08-166.2-29.02-26.08-82.35-35.89-109.87-13.34-7.83,6.42-11.97,14.15-12.81,15.75-11.43,21.95-.04,39.85,5.03,82.41,3.58,30.09,5.99,50.3-4.02,71.98-2.41,5.23-11.69,25.31-32.19,37.55-17.94,10.71-37.18,11.06-37.22,16.69Z"/>
  <path class="cls-3" d="m161.52,171.82c-7.95,55.48-74.39,60.82-89,110-11.35,38.2,12.27,89.49,50.48,111.18,51.18,29.05,124.02,2.44,149-40,32.4-55.05-24.45-119.35,13-163,21.74-25.34,59.24-24.74,64-25,49.41-2.66,80.48,33.05,85,28,4.49-5.01-22.6-37.82-73.48-67.18-47.22-27.25-90.28-27.98-106-28-24.51-.03-72.83-.1-89.52,28.18-8.94,15.15-.39,24.2-3.48,45.82Z"/>
  <path class="cls-6" d="m161,157c-2.46,49.99-72.31,58.83-89,110-13.18,40.43,9.7,98.49,53,121,50.46,26.24,119.35-.63,144-42,32.31-54.21-21.88-115.69,17-161,21.74-25.34,57.24-27.74,62-28,49.41-2.66,83.48,39.05,88,34,4.49-5.01-25.11-50.64-76-80-9.73-5.61-49.75-27.66-106-28-19.24-.12-83.3-.5-97,31-6.56,15.07,5.02,22.27,4,43Z"/>
  <path class="cls-6" d="m212,417c.36,5.72,25.79,10.89,53,11,34.26.14,121.47.86,161.95-65,29.22-47.53,32.1-122.81-10.02-159.32-28.85-25.01-81.85-34.4-109.2-12.78-7.79,6.15-11.9,13.56-12.73,15.1-11.36,21.04-.04,38.2,5,79,3.56,28.85,5.95,48.22-4,69-9.06,18.92-24.34,30.3-32,36-27.49,20.45-52.35,21.3-52,27Z"/>
</svg>