<?xml version="1.0" encoding="UTF-8"?>
<svg id="Layer_1" data-name="Layer 1" xmlns="http://www.w3.org/2000/svg" viewBox="0 0 810.72 810.72">
  <defs>
    <style>
      .cls-1, .cls-2 {
        stroke-width: 0px;
      }

      .cls-2 {
        fill: #b3b3b3;
      }

      .cls-3 {
        fill: #f2f2f2;
        stroke: #000;
        stroke-miterlimit: 10;
        stroke-width: 14px;
      }
    </style>
  </defs>
  <circle class="cls-3" cx="405.36" cy="405.36" r="398.36"/>
  <path class="cls-2" d="m299.32,402.17c15.4-1.35,30.93-1.15,46.32.22,4.56.4,9.1.92,13.64,1.52l-1.99-.27c14.46,1.96,28.78,4.91,42.81,8.95,3.77,1.08,8.33-1.32,9.23-5.24s-1.2-8.07-5.24-9.23c-26.77-7.7-54.85-11.79-82.7-11.87-7.36-.02-14.72.27-22.06.91-2.02.18-3.82.72-5.3,2.2-1.3,1.3-2.28,3.44-2.2,5.3.17,3.77,3.31,7.87,7.5,7.5h0Z"/>
  <path class="cls-2" d="m314.43,292.4c.87-7.04,1.52-14.1,2.46-21.14l-.27,1.99c1.17-8.6,3-16.91,5.68-25.16,2.43-7.48,4.91-14.94,7.63-22.32,1.54-4.17,3.15-8.31,4.87-12.41l-.76,1.79c4.62-10.94,10.03-21.59,16.89-31.31.85-1.2,1.73-2.39,2.61-3.56s-.93,1.19-.31.41c.21-.26.41-.53.62-.79.5-.63,1.01-1.25,1.52-1.87,1.89-2.27,3.88-4.47,5.96-6.57s4.27-4.14,6.55-6.05c.57-.48,1.14-.95,1.72-1.41.26-.21.53-.42.79-.63,1.19-.95-1.46,1.09-.23.18s2.39-1.76,3.61-2.6c5.57-3.82,11.53-7.05,17.76-9.68l-1.79.76c8.11-3.39,16.63-5.72,25.34-6.91l-1.99.27c6.43-.85,12.92-1.08,19.4-.65,3.92.26,7.67-3.64,7.5-7.5-.19-4.29-3.3-7.22-7.5-7.5-14.69-.99-29.78,1.32-43.53,6.55s-27.44,13.65-38.23,24.57c-10.32,10.45-18.44,22.97-24.85,36.14s-11.64,27.64-16.33,41.87c-2.42,7.33-4.74,14.6-6.12,22.21-1.53,8.47-2.38,17.04-3.33,25.58-.21,1.92-.43,3.83-.67,5.74-.22,1.77,1,4.1,2.2,5.3,1.3,1.3,3.44,2.28,5.3,2.2s3.95-.72,5.3-2.2c1.44-1.56,1.94-3.21,2.2-5.3h0Z"/>
  <path class="cls-2" d="m347.87,588.94c-3.52-19.82-7.26-39.6-11-59.38-3.5-18.53-6.98-37.07-10.15-55.67-1.52-8.92-2.97-17.85-4.3-26.81-.66-4.46-1.29-8.92-1.91-13.38-.12-.85.11.85.11.8-.04-.32-.08-.64-.13-.95-.06-.48-.13-.95-.19-1.43-.16-1.19-.31-2.38-.46-3.57-.28-2.22-.55-4.43-.82-6.65-2.08-17.49-3.57-35.06-4.23-52.66-.67-17.95-.45-35.94.78-53.86.16-2.3.33-4.61.52-6.91.32-3.92-3.68-7.67-7.5-7.5-4.34.19-7.15,3.3-7.5,7.5-1.49,18.07-1.96,36.21-1.5,54.33.45,17.69,1.77,35.35,3.72,52.94,2.04,18.44,4.72,36.8,7.76,55.1,3.06,18.48,6.47,36.89,9.94,55.3,3.7,19.69,7.46,39.37,11.01,59.08.46,2.57.92,5.14,1.38,7.71.69,3.87,5.62,6.41,9.23,5.24,4.16-1.35,5.97-5.08,5.24-9.23h0Z"/>
  <path class="cls-2" d="m333.36,590.94c.02,4.19.66,8.4,1.32,12.52.7,4.4,1.6,8.76,2.6,13.1.89,3.86,1.87,7.71,2.99,11.51.76,2.59,1.66,5.14,2.39,7.75,2.62,9.36,5.28,18.67,8.53,27.84,3.66,10.33,7.72,20.53,12.14,30.56,2.12,4.8,4.34,9.57,6.8,14.22.98,1.85,1.99,3.68,3.08,5.47s2.44,3.34,3.25,5.19l-.76-1.79c.39,1,.63,2.02.78,3.08l-.27-1.99c.18,1.56.2,3.16.02,4.72l.27-1.99c-.13.83-.33,1.61-.64,2.38l.76-1.79c-.19.43-.42.83-.64,1.25-.56,1.09,1.25-1.34.35-.41-.65.66-.89.43.51-.26-.41.2-.77.48-1.19.67l1.79-.76-.32.12c-1.87.72-3.43,1.66-4.48,3.45-.94,1.61-1.34,3.98-.76,5.78,1.15,3.56,5.3,6.74,9.23,5.24,3.24-1.24,5.7-3.06,7.64-5.97,1.57-2.36,2.23-5.11,2.5-7.89.46-4.73-.43-9.75-3.18-13.67-3.44-4.9-6.11-10.37-8.66-15.77-1.89-3.98-3.66-8.01-5.38-12.07l.76,1.79c-5.6-13.26-10.61-26.8-14.65-40.63-1.34-4.61-2.48-9.28-3.93-13.86-1.35-4.26-2.61-8.52-3.68-12.86-1.57-6.36-2.93-12.79-3.82-19.29l.27,1.99c-.34-2.54-.62-5.09-.63-7.65-.02-3.92-3.44-7.68-7.5-7.5s-7.52,3.3-7.5,7.5h0Z"/>
  <path class="cls-1" d="m384.55,725.02c-31.92-59.8-48.33-126.95-60.08-193.93-6.09-34.75-11.5-69.74-15.55-104.32-4.2-35.81-6.74-71.92-5.35-107.99,1.31-33.93,5.78-67.47,16.7-99.93,4.63-13.76,10.05-26.01,18.49-38.82,7.15-10.85,17.4-21.87,28.27-28.89,2.37-1.53,4.83-2.92,7.35-4.18.69-.34,1.39-.68,2.09-1,.24-.11,2.6-1.14.68-.33,1.67-.7,3.36-1.33,5.08-1.92,2.94-1,5.94-1.84,8.97-2.51,1.52-.34,3.04-.63,4.58-.88.51-.08,1.02-.16,1.53-.24-2.24.34,1.06-.11,1.46-.15,3.07-.31,6.16-.44,9.25-.41,1.53.02,3.07.08,4.6.19.76.05,1.52.12,2.28.19.42.04,3.67.52,1.38.15,2.74.44,5.45.97,8.12,1.68,1.44.39,2.88.82,4.29,1.3.7.24,1.41.49,2.1.75.46.18.92.36,1.38.54-1.01-.43-1.04-.45-.1-.04,2.68,1.25,5.29,2.59,7.79,4.18,1.24.79,2.44,1.64,3.63,2.52-1.44-1.06-.37-.29-.08-.04.75.64,1.51,1.27,2.23,1.93,1.1,1,2.15,2.05,3.16,3.14.51.55,1.01,1.11,1.49,1.68.18.21,1.73,2.18.48.53,2.42,3.19,4.43,6.66,6.12,10.29,2.61,5.61,4.09,13.35,4.14,19.98.06,7.14-.99,12.73-3.66,19.95-.29.79-.6,1.58-.92,2.36.73-1.73-.4.81-.46.94-.72,1.53-1.49,3.03-2.31,4.5-1.79,3.21-3.82,6.27-6.03,9.21,1.08-1.43-.64.79-.7.87-.54.66-1.09,1.32-1.65,1.97-.94,1.09-1.9,2.16-2.88,3.2-2.59,2.75-5.32,5.37-8.16,7.85-1.33,1.16-2.68,2.29-4.05,3.4-.02.02-2.3,1.82-.96.78-.7.54-1.41,1.07-2.13,1.6-2.87,2.12-5.8,4.14-8.8,6.07-6.2,4-12.62,7.64-19.18,11.01-30.36,15.59-62.74,27.04-96.45,34.39-8.39,1.83-16.84,3.38-25.34,4.68l6.94,16.45c7.38-3.75,16.15-6.23,24.96-7.82,8.1-1.46,16.82-2.14,25.8-2.75,19.03-1.29,38.11-1.89,57.18-1.62,37.8.52,74.16,4.27,110.73,13.05,18.25,4.38,36.27,9.92,53.7,16.9.79.31,1.57.64,2.35.96.96.39-.03-.02-.19-.09.39.17.78.33,1.18.5,1.84.79,3.66,1.61,5.47,2.46,3.39,1.58,6.74,3.26,10.02,5.04,6.66,3.61,13.15,7.65,19.15,12.29-1.1-.85.51.43.84.69.76.62,1.52,1.25,2.26,1.89,1.38,1.18,2.73,2.39,4.04,3.64,2.69,2.56,5.23,5.27,7.59,8.14.26.32.51.63.77.95-.1-.12-.78-1.03-.16-.21.49.65.97,1.3,1.44,1.97,1.09,1.54,2.12,3.12,3.08,4.74.89,1.5,1.73,3.03,2.5,4.6.36.72.69,1.46,1.03,2.19.04.1.56,1.33.18.41s.24.64.3.8c1.31,3.44,2.33,7.01,3,10.63.16.85.31,1.7.42,2.56-.18-1.38.05.83.09,1.23.17,2.09.24,4.19.19,6.28-.04,1.93-.18,3.84-.39,5.76-.11,1.07,0-.02.04-.2-.06.44-.14.87-.21,1.31-.17,1.02-.37,2.03-.58,3.04-.85,3.92-2.04,7.76-3.5,11.49-.16.42-.33.84-.5,1.25.08-.18.45-1.03.02-.08-.37.83-.75,1.65-1.14,2.46-.92,1.92-1.91,3.8-2.96,5.66-1.98,3.49-4.16,6.87-6.51,10.13-.64.89-1.29,1.77-1.95,2.64.65-.84-.72.9-.91,1.14-1.38,1.72-2.81,3.4-4.27,5.05-2.73,3.08-5.58,6.04-8.53,8.9-12.58,12.19-26.25,21.89-41.08,31.4-31.73,20.33-66.1,36.41-100.65,51.32-34.92,15.08-71.49,28.69-108.1,40.38-18.43,5.89-37.01,11.33-55.71,16.31-18.59,4.96-38.13,10.01-56.77,12.39-9.92,1.26-19.96,1.91-29.95,1.58-.86-.03-1.72-.06-2.58-.13-.5-.04-2.53-.34-1.06-.07-.99-.18-1.96-.38-2.93-.66-.4-.12-.81-.24-1.2-.39.86.32.53.14-.11-.13-.07-.03-1.22-.77-.45-.22s-.29-.28-.36-.35c-1.25-1.24-.36-.42-.14-.07-.19-.3-.35-.72-.57-.99-.59-.72.16.18.19.44-.04-.3-.16-.78-.27-1.05-.36-.9.13.39.1.6.07-.43.04-1.03.02-1.47.09,1.85.09-.2.32-.96.11-.38.25-.75.37-1.13-.05.15-.57,1.23-.12.28.86-1.81,1.91-3.52,3.09-5.13.6-.82.07-.08-.05.07.28-.34.57-.69.86-1.02.58-.67,1.19-1.33,1.81-1.97,1.41-1.45,2.91-2.81,4.48-4.08,6.48-5.25,13.68-10.51,20.96-15.66,29.69-20.99,61.57-38.87,94.96-53.27,7.16-3.09,15.85-6.52,23.89-9.5,4.56-1.68,7.65-6.1,6.29-11.07-1.2-4.38-6.49-7.98-11.07-6.29-36.14,13.36-70.88,30.45-103.33,51.24-8.16,5.23-16.18,10.69-24.04,16.36-7.76,5.61-15.93,11.17-22.96,17.69s-12.37,14.37-13.37,23.7c-1.1,10.33,6.44,18.92,15.94,21.73,9.21,2.73,20.02,1.77,29.47,1.1,10.79-.77,21.54-2.35,32.16-4.39,20.19-3.89,40.11-9.34,59.88-14.95,39.18-11.13,77.79-24.26,115.64-39.33,37.26-14.83,74.33-31,109.43-50.47,16.97-9.41,33.44-19.78,48.9-31.53s28.17-23.56,39.06-38.57,17.67-31.15,18.42-48.95c.7-16.37-4.81-32.79-14.65-45.82-20.81-27.58-53.84-41.91-85.77-52.38-38.05-12.48-77.93-19.08-117.84-21.61-19.76-1.25-39.59-1.48-59.38-.87s-40.08,1.3-59.6,5.04c-9.64,1.85-18.96,4.9-27.71,9.35-3.95,2.01-5.38,7.37-3.68,11.24,1.94,4.41,6.04,5.91,10.62,5.21,36.22-5.55,71.43-16.04,104.95-30.82,28.82-12.71,58.27-28.58,77.13-54.65,9.32-12.89,14.95-28.69,14.82-44.67-.14-16.93-6.46-33.79-18.27-46.02-19.54-20.24-50.64-24.74-77.01-18.01-29.76,7.59-52.44,30.57-66.81,56.9-16.44,30.11-23.92,64.49-28.21,98.24-4.75,37.34-4.3,75.15-1.28,112.61,3.03,37.66,8.55,75.09,14.45,112.39,5.56,35.12,11.86,70.16,20.52,104.66,8.72,34.7,19.95,68.77,34.89,101.31,3.65,7.96,7.55,15.8,11.67,23.52,2.29,4.29,8.23,5.61,12.31,3.23,4.34-2.54,5.53-8.01,3.23-12.31h0Z"/>
  <path class="cls-1" d="m303.64,391.21c1.67-.3,3.35-.56,5.04-.79l-1.99.27c11.12-1.47,22.39-1.3,33.5.17l-1.99-.27c13.97,1.89,27.6,5.79,40.58,11.26l-1.79-.76c7.34,3.11,14.46,6.71,21.33,10.75,3.38,1.99,8.37.88,10.26-2.69s.92-8.14-2.69-10.26c-24.97-14.69-53.75-24.11-82.89-24.23-7.82-.03-15.64.71-23.34,2.09-1.75.32-3.61,1.96-4.48,3.45-.94,1.61-1.34,3.98-.76,5.78s1.71,3.57,3.45,4.48c1.87.99,3.69,1.13,5.78.76h0Z"/>
</svg>